<?xml version="1.0" encoding="UTF-8"?>
<svg version="1.1" xmlns="http://www.w3.org/2000/svg" viewBox="0 0 100 222">
<path d="M0 0 C1.99525976 1.57763596 2.89351215 2.43398315 3.36914349 4.96211529 C3.36637811 5.71153298 3.36361273 6.46095068 3.36076355 7.233078 C3.36488754 8.09544571 3.36901154 8.95781342 3.3732605 9.84631348 C3.36247467 10.78930298 3.35168884 11.73229248 3.34057617 12.70385742 C3.34123329 14.19681084 3.34123329 14.19681084 3.34190369 15.71992493 C3.33981084 19.01530458 3.31645601 22.31017778 3.29296875 25.60546875 C3.28737457 27.88804344 3.28310363 30.17062172 3.28010559 32.45320129 C3.26864285 38.46534137 3.23916319 44.47726455 3.20599365 50.48931885 C3.17532366 56.62240667 3.16160681 62.75552949 3.14648438 68.88867188 C3.11429502 80.92587663 3.06308127 92.96292029 3 105 C-3.41213181 102.97011287 -9.29035642 100.98639411 -14 96 C-15.58980707 90.75222289 -15.42552019 85.64082179 -15.29296875 80.22265625 C-15.29489252 78.68565047 -15.30166584 77.1486438 -15.31306458 75.61167908 C-15.33000245 71.58432395 -15.28145652 67.56036902 -15.21887207 63.53356934 C-15.16661655 59.41758301 -15.17682135 55.30179206 -15.18164062 51.18554688 C-15.18193939 43.12259322 -15.1130046 35.06215828 -15 27 C-24.97282121 32.50971693 -34.92309283 38.04515878 -44.75 43.8125 C-45.74298096 44.3907251 -46.73596191 44.9689502 -47.7590332 45.56469727 C-52.95509907 48.59707054 -58.11894295 51.67269755 -63.24609375 54.8203125 C-64.74414551 55.73139771 -64.74414551 55.73139771 -66.27246094 56.66088867 C-68.17523491 57.82056088 -70.07083344 58.99211322 -71.95800781 60.17700195 C-72.81104492 60.69480225 -73.66408203 61.21260254 -74.54296875 61.74609375 C-75.28571045 62.20685303 -76.02845215 62.6676123 -76.79370117 63.14233398 C-79.62804682 64.24414391 -81.12428403 63.88999248 -84 63 C-86.34955623 61.74671971 -88.56740097 60.47663707 -90.8125 59.0625 C-91.40998047 58.70220703 -92.00746094 58.34191406 -92.62304688 57.97070312 C-94.12129015 57.04093616 -95.56628564 56.02648071 -97 55 C-97 54.34 -97 53.68 -97 53 C-95.48828125 51.88110352 -95.48828125 51.88110352 -93.3125 50.62890625 C-92.07185791 49.90622559 -92.07185791 49.90622559 -90.80615234 49.16894531 C-89.41710693 48.37375488 -89.41710693 48.37375488 -88 47.5625 C-85.97096522 46.38217879 -83.94234409 45.20114628 -81.9140625 44.01953125 C-80.80450195 43.37580566 -79.69494141 42.73208008 -78.55175781 42.06884766 C-72.13457734 38.33826656 -65.757151 34.5400642 -59.375 30.75 C-58.70137421 30.35046112 -58.02774841 29.95092224 -57.33370972 29.53927612 C-46.21486153 22.94382083 -35.14651205 16.26823453 -24.12060547 9.51855469 C-19.41412714 6.64461838 -14.70237651 3.77968555 -9.92578125 1.0234375 C-9.24298096 0.62817871 -8.56018066 0.23291992 -7.85668945 -0.17431641 C-4.92020497 -1.48019287 -2.94058852 -1.1202242 0 0 Z " fill="#046968" transform="translate(98,116)"/>
<path d="M0 0 C0.06945436 13.23003173 0.12278814 26.46002021 0.15543652 39.69019699 C0.17110464 45.83324362 0.19236406 51.97616569 0.22631836 58.11914062 C0.25887057 64.04541501 0.27684438 69.97156945 0.28463173 75.89792633 C0.29018265 78.16100198 0.301022 80.42407094 0.31719017 82.68709564 C0.33890911 85.85241479 0.3419692 89.01723574 0.34057617 92.18261719 C0.351362 93.12201141 0.36214783 94.06140564 0.3732605 95.02926636 C0.34318792 101.3277633 0.34318792 101.3277633 -1.31034851 104.56671143 C-3.59949358 106.50853522 -5.58873288 106.79666693 -8.546875 106.62109375 C-13.55708273 105.35258574 -17.68452459 102.12998745 -21.95166016 99.31738281 C-25.83306688 96.82106927 -29.83106938 94.51954834 -33.8125 92.1875 C-35.71646654 91.06564829 -37.62009508 89.94322278 -39.5234375 88.8203125 C-40.55049805 88.21477539 -41.57755859 87.60923828 -42.63574219 86.98535156 C-49.07438783 83.18570959 -55.50734699 79.37649445 -61.9375 75.5625 C-62.61736969 75.159245 -63.29723938 74.75598999 -63.99771118 74.34051514 C-76.38911205 66.98685781 -88.7175272 59.53442188 -101 52 C-97.64976496 49.21420673 -94.29222807 46.8339437 -90.5 44.6875 C-89.5821875 44.15511719 -88.664375 43.62273438 -87.71875 43.07421875 C-84.46764092 41.78965697 -83.32297464 42.06728863 -80 43 C-77.42651367 44.26831055 -77.42651367 44.26831055 -74.66796875 45.88671875 C-73.63365723 46.48871094 -72.5993457 47.09070312 -71.53369141 47.7109375 C-69.87732666 48.68933594 -69.87732666 48.68933594 -68.1875 49.6875 C-67.0308214 50.36394036 -65.8737517 51.03971237 -64.71630859 51.71484375 C-62.32701838 53.10997663 -59.94012799 54.50908571 -57.55517578 55.91162109 C-54.16563602 57.90438835 -50.76928231 59.88529202 -47.37109375 61.86328125 C-42.57061232 64.65764623 -37.77311768 67.45704743 -32.97776794 70.26020813 C-29.87123125 72.07523448 -26.76364015 73.88844403 -23.65576172 75.70117188 C-22.59171112 76.32181519 -21.52766052 76.9424585 -20.43136597 77.58190918 C-19.6290152 78.04987915 -18.82666443 78.51784912 -18 79 C-18.02300171 78.14302017 -18.04600342 77.28604034 -18.06970215 76.40309143 C-18.27291593 68.29705604 -18.3982607 60.19425967 -18.43784332 52.08570957 C-18.46089566 47.91706722 -18.51321579 43.75322094 -18.63427734 39.58618164 C-19.39081594 12.54973044 -19.39081594 12.54973044 -15.37255859 6.5836792 C-11.30396385 2.89487125 -5.63680382 0 0 0 Z " fill="#056968" transform="translate(101,0)"/>
</svg>
